<svg xmlns="http://www.w3.org/2000/svg"><defs><filter id="multiply"><feBlend mode="multiply"/></filter></defs><symbol viewBox="0 0 564.5 282.3" id="main-image"><path fill="#FFF0DE" d="M102.1 112.2l.7 9.2s121.4 4.7 142.5 4.4c21-.3 154.4.3 223.5-1.2s95.5-1.9 95.5-1.9l.1-9.3s-169.1-.9-234.4-1.8c-65.3-.9 0 0 0 0l-227.9.6zM550.2 35.1s-396.4.8-428.4-1.2c-.4 8.3-.3 24-.3 24s348.6 1.1 428.4.1c.6-6.2.3-22.9.3-22.9zM549.9 68.6s-306.6 2.1-431 .4c-1.2 15.1-.3 22.9-.3 22.9s308.4 1.1 430.8.7c.6-10.5.5-24 .5-24zM122.5.4S406.9 4.8 548.6 0c1.4 14.1 1.7 25 1.7 25s-362.1 2.9-428.2-2.2c-.3-8.8.4-22.4.4-22.4zM145.1 126l-2.1 59.2-21.8.4 5-60.1zM518.1 125.8l1.9 59.3 21.8.5-4.8-60.3z"/><path fill="#4E4D50" class="shadow" d="M549.9 204H542s-4.6 0-13 .1h-5l17.7-18-20.8-.7-378.9.7-20.8-.7-18.7 19c-15.3-.1-29.1-.2-41-.4l-6.4 18.5h.4l-5.4 4s35.1.2 87.1.5c-.9.5-1.8 1-2.7 1.6-1.6.9-3.2 1.9-4.7 2.9-33.1-.1-62.7-.3-85.6-.6l-15.6 11.5s39.5.1 96.8.2c.6 1.7 1.8 3.3 3.3 4.8-42.1 0-79.6-.2-107.1-.6L0 262.3s42.9-.1 104.3-.3h2c10.7.5 20.4.1 29.8-.3-1.3 2.1-1.6 4.4-.4 7.3 11 20 48.9 12.4 66.7-2.1 2.2-1.9 3.3-3.7 3.9-5.3 27.3-.1 55.5-.2 83.3-.3h5.9c-4.5 20.2 22.6 23 36.2 20.1 1-.2 2-.4 3-.5 5-.5 10-2.5 14-7.5 3-4 9 2 13 0 2-1 5-3 4-6.5v-2.8c0-.7-.1-1.4-.3-2.1l-.3-.9c49.1-.2 93-.4 123.5-.6 19.7-14.6 16-14.5 16-14.5s-34.7.3-86.3.6c4.3-1.3 8.7-2.5 13-3.8 31.3-.1 59-.2 80.4-.3 19.7-14.6 5.1-11.4 5.1-11.4s-23.8.1-61.3.3c.2-1 .2-2 0-3 26.9 0 50.9-.1 69.9-.2 2.8-2.1 5.1-4 7.1-5.9 3.3 0 6.5 0 9.6-.1 17.9-16.1 7.8-18.2 7.8-18.2zm-319.1 43.3c3.6-1.5 7.1-3 10.6-4.5h43.4c.2 1.2.7 2.4 2 3.6.3.3.6.5 1 .8-18.7 0-37.9 0-57 .1zm53.4-15.6h-29.9c.1-1 .2-1.9.2-2.9v-1.1c9.8 0 19.8.1 29.8.1 0 1.3 0 2.6-.1 3.9z"><animate attributeName="fill-opacity" values="0;1;0" dur="2s" repeatCount="indefinite"/></path></symbol><symbol viewBox="0 0 783.2 368.5" id="heb-title"><g fill="#FFF0DE"><path d="M41.3 368.5c-.8 0-3.3-.6-7.7-6.3-1.9-2.5-5.3-12.7-6.3-53v-60.9c0-49.6 2.9-89.7 8.7-119.1l.6-3.1-3.1-.3c-8.1-.7-15.5-2.2-21.8-4.4-8.9-2.8-11.2-5.1-11.8-6 .4-.3 1.6-1 4.9-1.5 2.8-.5 6.3-.8 10.4-.8 5.9 0 13.1.5 21.6 1.5l2.6.3.5-2.6c2.3-11.9 4.7-23.8 7.2-35.3 4.2-14.5 9.9-21.9 17.1-21.9 9.4 0 16.5 2.6 21.5 8.1 5.1 5.5 7.6 12.1 7.6 20.3 0 10-3.4 18.6-10.3 26.3-7.9 8.8-18.8 14-32.5 15.5l-2.1.2-.4 2c-3.3 16.6-5 35.4-5 55.8 0 14.2 1.2 35.8 3.4 64 2.3 28.1 3.4 49.3 3.4 62.8 0 18.5-1.4 35.3-4.1 49.8-1 5.4-2.7 8.6-4.4 8.6zM62.6 68.1c-2.8 4.2-4.6 9.8-5.4 16.9-1.7 12.9-2.3 15.5-2.5 16v.1l-.1.2-3.5 12.7 4.4-.8c17.7-3.3 26.7-14.8 26.7-34V78l-.8-.8c-5.8-5.8-10.9-9.1-15.8-10.3l-1.9-.5-1.1 1.7zM111.8 305.9c-4 0-4-1.6-4-2.9 0-1.8.8-4 2.3-6.6v-.2c.9-1.7 2.3-3.7 4.4-5.7l6.5-6.6c10.1-10.9 18.4-25.2 24.6-42.5.8-2.4 4.7-16.2 11.9-42.1 3.9-14.8 8.6-25.3 13.9-31.3 4.6-5.5 6.8-5.9 7.4-5.9 1.2 0 2.9 2.4 4.1 9.1 1 6.7-2.5 24.6-24.9 71.8-22.3 47-33.8 59.3-39.5 61.4-2.5 1.1-4.8 1.5-6.7 1.5zm22.9-74.2c-.9 0-3.6 0-6.3-5l-.1-.1c-1.3-2.2-2.3-5.9-3-11.1v-.1c-.8-4.3-1.4-8.6-1.9-12.8v-.2c-1.3-6.5-4-15.2-8.1-26-4.5-11.6-7.4-19.8-8.7-24.5-.5-1.6-.7-3-.7-4.2 0-5.1 2-5.5 4-5.5s4.3 1.1 6.8 3.4c2.6 2.6 7.1 11.1 14.5 36.8 5.5 20 8.3 33.8 8.3 41.1 0 8.2-3.3 8.2-4.8 8.2zM250.9 254.5c-18.1 0-31.7-3.4-40.6-10.1-7.4-5.6-11.1-12.7-11.1-21.7 0-11.1 4.8-21.8 14.3-31.8 9.4-9.9 19.8-14.9 30.9-14.9 1.8 0 3.6.2 5.4.7h.2c5.7.9 8.2 1.8 9.2 2.3-1.1 1-3.7 3-10.5 6.4-11.4 5.7-19.3 10.4-24.1 14.4-9.3 7.1-14 15.1-14 23.5 0 13 13.5 19.6 40.2 19.6 10.3 0 22.6-5 22.6-28.7 0-12.7-4.1-32.5-12.1-58.9-10.3-34-11.9-42.1-11.9-43.9 0-18.1 3.3-36.8 9.7-55.5 5.5-15.7 12.3-29.6 20.2-41.2C288.9 1.1 293.2 0 294.3 0c.9 0 1 2.3 1 3.3 0 1.8-.4 4-1 6.5v.2c-1.7 9.1-5.6 20.2-11.6 32.8-8.2 18-12.9 28.6-14.2 32.3-4.9 12.6-7.4 24.9-7.4 36.4 0 12 4.3 29.2 12.8 51.3 8.2 21.4 12.4 38 12.4 49.3 0 10.5-3.3 20.2-9.7 28.8-7.3 9.1-15.7 13.6-25.7 13.6zM368.9 306.3c-5.4 0-11.6-2.9-18.4-8.5l-.1-.1c-3.3-2.5-5-4.9-5-7.3 0-.9 0-3.6 8.6-3.6 25.4 0 38.3-20.4 38.3-60.7 0-11-1.5-28.2-4.6-51l-.5-3.4-3.3 1.1c-4.3 1.4-8.1 2.1-11.3 2.1-7.1 0-7.1-2.4-7.1-3.3 0-2.5 3.3-5.4 9.3-8.1 8.5-3.4 20.2-5.1 34.7-5.1 20.8 0 34.4 8.5 41.6 26.1 4.4 11 6.6 29.5 6.6 54.9 0 4-1.7 5.5-5.9 5.5-4 0-5.5-1.5-5.5-5.5 0-24.2-1.4-39.7-4.4-47.5-5.4-14.7-17.7-22.1-36.6-22.1-1.3 0-2.6 0-3.9.1l-3.2.2.5 3.1c1 6.2 1.5 15.4 1.5 27.4 0 27.1-2.2 50.3-6.4 69.1-5.5 24.3-14 36.6-24.9 36.6zM480.9 261.4c-1 0-4.1 0-4.4-8.7 0-4.8.9-11.9 2.6-21.1 2-10.4 3.3-17.8 3.8-21.9v-.2c.3-3.9.3-9.2 0-15.9V178c0-4.7.2-8.9.7-12.5 1.5-7.5 4.7-7.5 5.9-7.5 1.5 0 2.7.5 3.8 1.6 1.1 1.1 1.6 2.4 1.6 3.9v4.9l4.2-2.4c7.6-4.3 14.6-6.5 20.9-6.5 11.1 0 19.8 5.9 26.6 18 6.5 11 9.8 24.3 9.8 39.8 0 12.4-2.3 23-6.9 31.4-1.5 2.8-3.9 6.1-6.7 6.1-2.5 0-4.2-2.8-5.2-8.2-.5-4 .2-11.4 1.9-22 2.3-12.7 3.5-21.3 3.5-26.4 0-17.1-9.3-26.1-26.8-26.1-4.4 0-10.6 2.5-19 7.7l-1.4.9.1 1.7c.5 10.5.1 23.6-1.1 38.9-2.1 23.6-4.9 31.8-6.9 34.6-2.5 3.6-4.9 5.5-7 5.5zM571.6 306.3c-5.4 0-11.6-2.9-18.4-8.5l-.1-.1c-3.3-2.5-5-4.9-5-7.3 0-.9 0-3.6 8.6-3.6 25.4 0 38.3-20.4 38.3-60.7 0-11-1.5-28.2-4.6-51l-.5-3.4-3.3 1.1c-4.3 1.4-8.1 2.1-11.3 2.1-7.1 0-7.1-2.4-7.1-3.3 0-2.5 3.3-5.4 9.3-8.1 8.5-3.4 20.2-5.1 34.7-5.1 20.8 0 34.4 8.5 41.6 26.1 4.4 11 6.6 29.5 6.6 54.9 0 4-1.7 5.5-5.9 5.5-4 0-5.5-1.5-5.5-5.5 0-24.2-1.4-39.7-4.4-47.5-5.4-14.7-17.7-22.1-36.6-22.1-1.3 0-2.6 0-3.9.1l-3.2.2.5 3.1c1 6.2 1.5 15.4 1.5 27.4 0 27.1-2.2 50.3-6.4 69.1-5.6 24.3-14 36.6-24.9 36.6zM684.4 284.6c-.6 0-2.8-.5-5.6-7.5-.2-2.7 1.1-20.6 11.1-107.1l.1-1.3-.8-.9c-1.5-1.7-2.3-3.3-2.3-4.6 0-1.3 0-3.6 6.3-3.6 1.9 0 3.8.4 5.7 1.3h.1c1.4.6 6.4 4.6 21.1 28.9 6.8 12.1 13.7 24.3 20.5 36.1l3.3 5.8 1.9-6.4c4.1-14.1 8.1-28.2 11.8-41.9 8-25.3 12.4-33.8 14.7-36.5 4-4.8 6.2-5.3 7-5.3 2.8 0 3.7 6.4 4 9.2-.1 1.6-2.2 9.8-14.2 46.5-12.1 37-16 47.3-17.1 49.4-3.5 6.1-5.2 6.5-5.2 6.5s-1.5-.1-5.9-4.5c-5.9-5.6-12.4-15.5-19.3-29.4-9-17.8-14.7-28.4-17.3-32.6l-4.9-7.9-.3 9.3c-.5 15.7-1.2 31.4-1.9 46.8-1.2 21.3-3.6 35.6-6.9 42.3l-.1.1c-2 4.7-4.1 7.3-5.8 7.3z"/></g></symbol><symbol viewBox="0 0 334.4 39" id="heb-subtitle"><g fill="#FFF0DE"><path d="M4.1 8.4V39H0V8.4h4.1zM14.6 8.4v11.4h-4.1V8.4h4.1zM20.9 8.4h18v5.5c0 1.7-.2 3.1-.5 4-.3.9-1.2 2.3-2.6 4.2-1.1 1.5-1.7 3.1-1.7 4.9v3.5h-4v-3c0-1.6.1-2.8.4-3.8.3-.9.8-1.9 1.7-2.9l1.2-1.6c.6-.8 1-1.5 1.2-2.1.2-.6.3-1.4.3-2.5v-3h-14V8.4zm.4 30.6V18.1h3.8V39h-3.8zM59.4 8.4c-.2 3.7-.4 6-.6 6.9-.2.9-.7 1.8-1.4 2.7-.8.9-2 1.8-3.6 2.8l4.7 7.4v2.3H42.6v-3.3h11.1L41.5 8.4H46l6.1 9.8c1-.7 1.8-1.5 2.2-2.4.5-.9.7-2.1.7-3.7l.2-3.7h4.2zM79.9 8.4c-.2 3.7-.4 6-.6 6.9-.2.9-.7 1.8-1.4 2.7-.8.9-2 1.8-3.6 2.8l4.7 7.4v2.3H63v-3.3h11.1L61.9 8.4h4.5l6.1 9.8c1-.7 1.8-1.5 2.2-2.4.5-.9.7-2.1.7-3.7l.2-3.7h4.3zM101.3 8.4V39h-4.1V8.4h4.1zM127.4 30.5h-4.9l-8.4-11.9c-1.3.7-2.1 2.2-2.3 4.3l-.9 7.6h-4.1l.9-7.6c.4-3.6 1.9-6 4.4-7.2l-5.2-7.3h4.9l7.1 9.9c.6-.4 1-.8 1.4-1.2.3-.5.6-1.1.8-1.9.2-.8.5-3.1.9-6.7h4.1l-.5 4.6c-.3 2.1-.7 3.8-1.4 4.9-.7 1.2-1.8 2.2-3.3 3.2l6.5 9.3zM135.9 8.4v11.4h-4.1V8.4h4.1zM140.8 8.4h3.9l1.6 4.9c.7-1.5 1.7-2.7 3.1-3.6 1.4-1 2.9-1.5 4.4-1.5 2.6 0 4.5.9 5.9 2.7 1.4 1.8 2 5.1 2 9.8v9.8h-11.4v-3.3h7.4v-6.5c0-2.7-.1-4.5-.3-5.6s-.7-1.9-1.3-2.6c-.7-.6-1.4-1-2.3-1-1.5 0-2.8.8-3.9 2.4-1.1 1.6-2 4.4-2.8 8.4l-1.6 8.2h-4l1.7-8.6 1-4.3-3.4-9.2zM185.5 11.8h-3.8v18.8h-4V11.8h-12.1V8.4h19.8v3.4zM202.4 8.4h12.9v5.7c0 1.7-.1 3-.4 4-.3.9-.8 1.8-1.5 2.7-1.3 1.6-2 2.7-2.3 3.5-.3.8-.5 1.7-.5 2.6v3.6h-2.7v-3c0-1.5.1-2.7.4-3.5.2-.9.8-1.9 1.7-3.2 1.2-1.6 1.9-2.6 2.2-3s.4-.9.4-1.3c.1-.4.1-1 .1-1.8v-3.8h-12.9V0h2.7v8.4zM222.7 8.4c.2 5.2.4 8.3.5 9.3.1 1 .3 2 .5 2.8 2-.2 3.5-.5 4.4-1 .9-.5 1.5-1.1 1.8-1.8s.5-1.8.7-3.3l.5-5.9h2.7l-.5 6.6c-.2 2.1-.6 3.6-1.2 4.6-.6.9-1.5 1.7-2.6 2.2-1.2.5-2.8.9-5 1.1.5 1.9 1.4 3.3 2.7 4.4 1.3 1 2.9 1.5 4.8 1.5 2.8 0 4.8-.9 6.2-2.7 1.3-1.8 2.2-4.5 2.5-8.1l.9-9.5h2.7l-.9 9.4c-.5 4.9-1.6 8.3-3.5 10.3s-4.6 3-8.1 3c-3.7 0-6.5-1.3-8.3-4-1.8-2.7-2.9-6.9-3.1-12.6l-.4-6.3h2.7zM264.4 8.4v22.1h-2.7V8.4h2.7zM270.8 8.4h2.7v11c0 6.1 2.2 9.2 6.5 9.2 2.5 0 4.2-.8 5.2-2.4 1-1.6 1.5-4 1.5-7.2v-3c0-3.7-.9-5.5-2.8-5.5-1.2 0-2.4.7-3.7 2l-1.2-1.8c1.3-1.8 3-2.6 5-2.6 1.8 0 3.1.7 4 2 .9 1.3 1.3 3.4 1.3 6.3V19c0 4.3-.8 7.4-2.3 9.4-1.6 1.9-3.9 2.9-7 2.9-3.2 0-5.5-.9-7-2.8-1.5-1.8-2.2-4.8-2.2-8.9V8.4zM293 8.7c2-.3 3.8-.5 5.4-.5 4 0 6.9.8 8.7 2.5 1.7 1.6 2.6 4.3 2.6 7.9v11.9H307V19c0-3.2-.7-5.4-2-6.6-1.4-1.2-3.5-1.7-6.4-1.7-1.5 0-3.2.1-5.3.4l-.3-2.4zM324.6 7.9c3 0 5.4 1.1 7.1 3.3 1.7 2.2 2.6 5 2.6 8.4 0 3.6-.9 6.4-2.7 8.5-1.8 2.1-4.2 3.1-7.1 3.1-2.9 0-5.3-1-7-3.1-1.7-2.1-2.6-4.9-2.6-8.5 0-3.4.9-6.2 2.6-8.4 1.8-2.2 4.2-3.3 7.1-3.3zm.1 2.5c-2.2 0-3.9.8-5.1 2.5-1.3 1.7-1.9 3.9-1.9 6.7 0 2.8.6 5 1.9 6.7 1.3 1.7 3 2.5 5.1 2.5 2.1 0 3.8-.8 5.1-2.5 1.3-1.7 1.9-3.9 1.9-6.7 0-2.8-.6-5-1.9-6.7-1.3-1.7-3-2.5-5.1-2.5z"/></g></symbol></svg>